<svg width="18" height="20" viewBox="0 0 18 20" fill="none" xmlns="http://www.w3.org/2000/svg">
<g filter="url(#filter0_d_1_5640)">
<path d="M16.6647 14.0275C16.3774 14.6563 16.0374 15.2352 15.6434 15.7674C15.1064 16.4929 14.6667 16.9952 14.3279 17.274C13.8026 17.7318 13.2398 17.9662 12.6371 17.9796C12.2045 17.9796 11.6827 17.8629 11.0753 17.6262C10.466 17.3907 9.90599 17.274 9.39396 17.274C8.85695 17.274 8.28102 17.3907 7.66499 17.6262C7.04801 17.8629 6.55099 17.9862 6.17098 17.9985C5.59305 18.0218 5.017 17.7807 4.442 17.274C4.07501 16.9707 3.61598 16.4507 3.06607 15.7141C2.47607 14.9274 1.991 14.0152 1.61099 12.9753C1.20402 11.852 1 10.7642 1 9.71115C1 8.50485 1.27507 7.46444 1.82603 6.59258C2.25904 5.89227 2.83509 5.33984 3.55606 4.9343C4.27703 4.52875 5.05605 4.32209 5.89497 4.30887C6.35401 4.30887 6.95597 4.44342 7.70403 4.70786C8.44998 4.97318 8.92895 5.10774 9.13894 5.10774C9.29594 5.10774 9.82802 4.95041 10.73 4.63675C11.583 4.34587 12.3029 4.22543 12.8927 4.27287C14.4908 4.39509 15.6915 4.99207 16.49 6.0676C15.0607 6.88824 14.3537 8.03765 14.3677 9.51216C14.3806 10.6607 14.8203 11.6164 15.6845 12.3753C16.0761 12.7275 16.5134 12.9997 17 13.193C16.8945 13.483 16.7831 13.7608 16.6647 14.0275ZM12.9994 0.360103C12.9994 1.26031 12.6524 2.10083 11.9606 2.8788C11.1258 3.80366 10.116 4.33809 9.02099 4.25376C9.00704 4.14577 8.99894 4.0321 8.99894 3.91266C8.99894 3.04847 9.39595 2.1236 10.101 1.3674C10.453 0.984528 10.9006 0.666171 11.4435 0.412211C11.9852 0.162041 12.4976 0.0236918 12.9795 0C12.9936 0.120343 12.9994 0.240706 12.9994 0.360103Z" fill="#DDDDDD"/>
</g>
<defs>
<filter id="filter0_d_1_5640" x="0" y="0" width="18" height="20" filterUnits="userSpaceOnUse" color-interpolation-filters="sRGB">
<feFlood flood-opacity="0" result="BackgroundImageFix"/>
<feColorMatrix in="SourceAlpha" type="matrix" values="0 0 0 0 0 0 0 0 0 0 0 0 0 0 0 0 0 0 127 0" result="hardAlpha"/>
<feOffset dy="1"/>
<feGaussianBlur stdDeviation="0.5"/>
<feComposite in2="hardAlpha" operator="out"/>
<feColorMatrix type="matrix" values="0 0 0 0 0 0 0 0 0 0 0 0 0 0 0 0 0 0 0.25 0"/>
<feBlend mode="normal" in2="BackgroundImageFix" result="effect1_dropShadow_1_5640"/>
<feBlend mode="normal" in="SourceGraphic" in2="effect1_dropShadow_1_5640" result="shape"/>
</filter>
</defs>
</svg>
