<svg width="20" height="20" viewBox="0 0 20 20" fill="none" xmlns="http://www.w3.org/2000/svg">
<path d="M0 8C0 3.58172 3.58172 0 8 0H20V12C20 16.4183 16.4183 20 12 20H0V8Z" fill="#EA3D3D"/>
<path d="M0 8C0 3.58172 3.58172 0 8 0H20V12C20 16.4183 16.4183 20 12 20H0V8Z" fill="url(#paint0_radial_1_5263)" fill-opacity="0.7"/>
<path d="M0 8C0 3.58172 3.58172 0 8 0H20V12C20 16.4183 16.4183 20 12 20H0V8Z" fill="url(#paint1_radial_1_5263)"/>
<g filter="url(#filter0_d_1_5263)">
<path d="M12.7661 11.6342C13.078 11.9459 13.078 12.45 12.7661 12.7608C12.6101 12.9166 12.4083 13 12.1972 13C11.9954 13 11.7936 12.9267 11.6376 12.7608L10.0046 11.1393L8.37156 12.7608C8.2156 12.9166 8.01376 13 7.80275 13C7.60092 13 7.38991 12.9166 7.23394 12.7608C6.92202 12.45 6.92202 11.9459 7.23394 11.6251L8.86697 10.0026L7.23394 8.37013C6.92202 8.05939 6.92202 7.54608 7.23394 7.23443C7.54587 6.92186 8.05046 6.92186 8.37156 7.23443L10.0046 8.8651L11.6284 7.23443C11.9495 6.92186 12.4541 6.92186 12.7661 7.23443C13.078 7.54608 13.078 8.05939 12.7661 8.37013L11.133 10.0026L12.7661 11.6342Z" fill="white"/>
</g>
<defs>
<filter id="filter0_d_1_5263" x="6" y="7" width="8" height="8" filterUnits="userSpaceOnUse" color-interpolation-filters="sRGB">
<feFlood flood-opacity="0" result="BackgroundImageFix"/>
<feColorMatrix in="SourceAlpha" type="matrix" values="0 0 0 0 0 0 0 0 0 0 0 0 0 0 0 0 0 0 127 0" result="hardAlpha"/>
<feOffset dy="1"/>
<feGaussianBlur stdDeviation="0.5"/>
<feComposite in2="hardAlpha" operator="out"/>
<feColorMatrix type="matrix" values="0 0 0 0 0 0 0 0 0 0 0 0 0 0 0 0 0 0 0.25 0"/>
<feBlend mode="normal" in2="BackgroundImageFix" result="effect1_dropShadow_1_5263"/>
<feBlend mode="normal" in="SourceGraphic" in2="effect1_dropShadow_1_5263" result="shape"/>
</filter>
<radialGradient id="paint0_radial_1_5263" cx="0" cy="0" r="1" gradientUnits="userSpaceOnUse" gradientTransform="translate(5.27778 4.16667) rotate(51.0441) scale(16.7889 16.7889)">
<stop stop-color="white" stop-opacity="0.59"/>
<stop offset="0.697917" stop-color="white" stop-opacity="0"/>
<stop offset="1" stop-color="white" stop-opacity="0"/>
</radialGradient>
<radialGradient id="paint1_radial_1_5263" cx="0" cy="0" r="1" gradientUnits="userSpaceOnUse" gradientTransform="translate(17.2603 17.5) rotate(-93.6705) scale(17.1184 19.0792)">
<stop stop-opacity="0.23"/>
<stop offset="0.861815" stop-opacity="0"/>
</radialGradient>
</defs>
</svg>
