<svg width="124" height="120" viewBox="0 0 124 120" fill="none" xmlns="http://www.w3.org/2000/svg">
<g filter="url(#filter0_d_1_5335)">
<circle cx="58" cy="50" r="40" fill="#F1F1F1"/>
<circle cx="58" cy="50" r="40" fill="url(#paint0_radial_1_5335)" fill-opacity="0.7"/>
</g>
<circle cx="58" cy="50" r="32" fill="#CE2D8F"/>
<circle cx="58" cy="50" r="32" fill="url(#paint1_radial_1_5335)" fill-opacity="0.7"/>
<circle cx="58" cy="50" r="32" fill="url(#paint2_radial_1_5335)"/>
<g filter="url(#filter1_d_1_5335)">
<path fill-rule="evenodd" clip-rule="evenodd" d="M65.8837 68.2398H59.797C59.038 68.2398 58.422 67.6238 58.422 66.8648C58.422 66.1058 59.038 65.4898 59.797 65.4898H65.8837C70.5165 65.4898 73.5103 62.3236 73.5103 57.425V42.4815C73.5103 37.581 70.5165 34.4166 65.8837 34.4166H50.0253C45.4035 34.4166 42.417 37.581 42.417 42.4815V57.425C42.417 62.3236 45.4035 65.4898 50.0253 65.4898H51.3472C52.1062 65.4898 52.7222 66.1058 52.7222 66.8648C52.7222 67.6238 52.1062 68.2398 51.3472 68.2398H50.0253C43.8305 68.2398 39.667 63.893 39.667 57.425V42.4815C39.667 36.0135 43.8305 31.6666 50.0253 31.6666H65.8837C72.0913 31.6666 76.2603 36.0135 76.2603 42.4815V57.425C76.2603 63.893 72.0913 68.2398 65.8837 68.2398ZM45.6831 59.501C45.3439 59.501 45.0029 59.3764 44.7371 59.1252C44.1871 58.6027 44.1632 57.7319 44.6857 57.18L47.4889 54.221C48.2369 53.429 49.2489 52.9909 50.3397 52.9872C51.3921 53.0569 52.4462 53.4144 53.2016 54.199L54.8167 55.8454C55.0679 56.102 55.3979 56.245 55.7664 56.2194C56.1257 56.2029 56.4502 56.0415 56.6794 55.7629L60.7659 50.7909C61.5726 49.81 62.7642 49.216 64.0347 49.1629C65.3016 49.1244 66.5409 49.6065 67.4246 50.5177L71.2324 54.4429C71.7604 54.9892 71.7476 55.86 71.2012 56.388C70.6567 56.9179 69.7859 56.9014 69.2579 56.3587L65.4501 52.4335C65.1054 52.0779 64.6544 51.878 64.1466 51.911C63.6516 51.9312 63.2061 52.1549 62.8907 52.538L58.8042 57.51C58.0837 58.3864 57.0204 58.918 55.8874 58.9675C54.7526 58.9914 53.6489 58.5807 52.8532 57.7722L51.2289 56.1149C50.9906 55.8692 50.6881 55.6529 50.3507 55.7372C50.0189 55.739 49.7127 55.8729 49.4854 56.1112L46.6804 59.072C46.4109 59.358 46.0479 59.501 45.6831 59.501ZM51.6942 49.3356C49.1624 49.3356 47.1035 47.2767 47.1035 44.7449C47.1035 42.2131 49.1624 40.1542 51.6942 40.1542C54.2242 40.1542 56.283 42.2131 56.283 44.7449C56.283 47.2767 54.2242 49.3356 51.6942 49.3356ZM51.6942 42.9042C50.6785 42.9042 49.8535 43.7292 49.8535 44.7449C49.8535 45.7606 50.6785 46.5856 51.6942 46.5856C52.708 46.5856 53.533 45.7606 53.533 44.7449C53.533 43.7292 52.708 42.9042 51.6942 42.9042Z" fill="white"/>
</g>
<defs>
<filter id="filter0_d_1_5335" x="0" y="0" width="124" height="124" filterUnits="userSpaceOnUse" color-interpolation-filters="sRGB">
<feFlood flood-opacity="0" result="BackgroundImageFix"/>
<feColorMatrix in="SourceAlpha" type="matrix" values="0 0 0 0 0 0 0 0 0 0 0 0 0 0 0 0 0 0 127 0" result="hardAlpha"/>
<feOffset dx="4" dy="12"/>
<feGaussianBlur stdDeviation="11"/>
<feColorMatrix type="matrix" values="0 0 0 0 0 0 0 0 0 0 0 0 0 0 0 0 0 0 0.16 0"/>
<feBlend mode="normal" in2="BackgroundImageFix" result="effect1_dropShadow_1_5335"/>
<feBlend mode="normal" in="SourceGraphic" in2="effect1_dropShadow_1_5335" result="shape"/>
</filter>
<filter id="filter1_d_1_5335" x="38.667" y="31.6666" width="38.5938" height="38.5731" filterUnits="userSpaceOnUse" color-interpolation-filters="sRGB">
<feFlood flood-opacity="0" result="BackgroundImageFix"/>
<feColorMatrix in="SourceAlpha" type="matrix" values="0 0 0 0 0 0 0 0 0 0 0 0 0 0 0 0 0 0 127 0" result="hardAlpha"/>
<feOffset dy="1"/>
<feGaussianBlur stdDeviation="0.5"/>
<feComposite in2="hardAlpha" operator="out"/>
<feColorMatrix type="matrix" values="0 0 0 0 0 0 0 0 0 0 0 0 0 0 0 0 0 0 0.25 0"/>
<feBlend mode="normal" in2="BackgroundImageFix" result="effect1_dropShadow_1_5335"/>
<feBlend mode="normal" in="SourceGraphic" in2="effect1_dropShadow_1_5335" result="shape"/>
</filter>
<radialGradient id="paint0_radial_1_5335" cx="0" cy="0" r="1" gradientUnits="userSpaceOnUse" gradientTransform="translate(43.5738 25.7377) rotate(55.9679) scale(60.9272 60.9272)">
<stop stop-color="white"/>
<stop offset="0.697917" stop-color="white" stop-opacity="0"/>
<stop offset="1" stop-color="white" stop-opacity="0"/>
</radialGradient>
<radialGradient id="paint1_radial_1_5335" cx="0" cy="0" r="1" gradientUnits="userSpaceOnUse" gradientTransform="translate(42.8889 31.3333) rotate(51.0441) scale(53.7245 53.7245)">
<stop stop-color="white" stop-opacity="0.59"/>
<stop offset="0.697917" stop-color="white" stop-opacity="0"/>
<stop offset="1" stop-color="white" stop-opacity="0"/>
</radialGradient>
<radialGradient id="paint2_radial_1_5335" cx="0" cy="0" r="1" gradientUnits="userSpaceOnUse" gradientTransform="translate(81.2329 74) rotate(-93.6705) scale(54.779 61.0535)">
<stop stop-opacity="0.23"/>
<stop offset="0.861815" stop-opacity="0"/>
</radialGradient>
</defs>
</svg>
