<svg width="124" height="124" viewBox="0 0 124 124" fill="none" xmlns="http://www.w3.org/2000/svg">
<g filter="url(#filter0_d_1_1553)">
<circle cx="58" cy="50" r="40" fill="#F1F1F1"/>
<circle cx="58" cy="50" r="40" fill="url(#paint0_radial_1_1553)" fill-opacity="0.7"/>
</g>
<circle cx="58" cy="50" r="32" fill="#FF2C29"/>
<circle cx="58" cy="50" r="32" fill="url(#paint1_radial_1_1553)" fill-opacity="0.7"/>
<circle cx="58" cy="50" r="32" fill="url(#paint2_radial_1_1553)"/>
<path d="M57.99 35C50.8789 35 45 40.7627 45 47.8925C45 51.4853 46.2877 54.8208 48.4114 57.6479C50.7324 60.7664 53.6178 63.4835 56.8842 65.6163C57.7 66.1463 58.3709 66.1091 59.1142 65.6163C62.3621 63.4835 65.2476 60.7664 67.5886 57.6479C69.7107 54.8208 71 51.4853 71 47.8925C71 40.7627 65.1211 35 57.99 35Z" fill="white"/>
<path opacity="0.3" d="M57.9836 55C54.1371 55 51 51.9444 51 48.0592C51 44.2044 54.1371 41 57.9836 41C61.8327 41 65 44.2044 65 48.0592C65 51.9444 61.8327 55 57.9836 55Z" fill="#1877F2"/>
<path d="M57.9907 52C55.7926 52 54 50.2539 54 48.0339C54 45.8311 55.7926 44 57.9907 44C60.1901 44 62 45.8311 62 48.0339C62 50.2539 60.1901 52 57.9907 52Z" fill="#1877F2"/>
<defs>
<filter id="filter0_d_1_1553" x="0" y="0" width="124" height="124" filterUnits="userSpaceOnUse" color-interpolation-filters="sRGB">
<feFlood flood-opacity="0" result="BackgroundImageFix"/>
<feColorMatrix in="SourceAlpha" type="matrix" values="0 0 0 0 0 0 0 0 0 0 0 0 0 0 0 0 0 0 127 0" result="hardAlpha"/>
<feOffset dx="4" dy="12"/>
<feGaussianBlur stdDeviation="11"/>
<feColorMatrix type="matrix" values="0 0 0 0 0 0 0 0 0 0 0 0 0 0 0 0 0 0 0.16 0"/>
<feBlend mode="normal" in2="BackgroundImageFix" result="effect1_dropShadow_1_1553"/>
<feBlend mode="normal" in="SourceGraphic" in2="effect1_dropShadow_1_1553" result="shape"/>
</filter>
<radialGradient id="paint0_radial_1_1553" cx="0" cy="0" r="1" gradientUnits="userSpaceOnUse" gradientTransform="translate(43.5738 25.7377) rotate(55.9679) scale(60.9272 60.9272)">
<stop stop-color="white"/>
<stop offset="0.697917" stop-color="white" stop-opacity="0"/>
<stop offset="1" stop-color="white" stop-opacity="0"/>
</radialGradient>
<radialGradient id="paint1_radial_1_1553" cx="0" cy="0" r="1" gradientUnits="userSpaceOnUse" gradientTransform="translate(42.8889 31.3333) rotate(51.0441) scale(53.7245 53.7245)">
<stop stop-color="white" stop-opacity="0.59"/>
<stop offset="0.697917" stop-color="white" stop-opacity="0"/>
<stop offset="1" stop-color="white" stop-opacity="0"/>
</radialGradient>
<radialGradient id="paint2_radial_1_1553" cx="0" cy="0" r="1" gradientUnits="userSpaceOnUse" gradientTransform="translate(81.2329 74) rotate(-93.6705) scale(54.779 61.0535)">
<stop stop-opacity="0.23"/>
<stop offset="0.861815" stop-opacity="0"/>
</radialGradient>
</defs>
</svg>
