<svg width="16" height="16" viewBox="0 0 16 16" fill="none" xmlns="http://www.w3.org/2000/svg">
<path d="M8 9.6C9.76731 9.6 11.2 8.16731 11.2 6.4C11.2 4.63269 9.76731 3.2 8 3.2C6.23269 3.2 4.8 4.63269 4.8 6.4C4.8 8.16731 6.23269 9.6 8 9.6ZM8 4.8C8.88366 4.8 9.6 5.51634 9.6 6.4C9.6 7.28366 8.88366 8 8 8C7.11634 8 6.4 7.28366 6.4 6.4C6.4 5.51634 7.11634 4.8 8 4.8Z" fill="black"/>
<path d="M1.6 16C0.716345 16 0 15.2837 0 14.4V1.6C0 0.716345 0.716344 0 1.6 0H14.4C15.2837 0 16 0.716344 16 1.6V14.4C16 15.2837 15.2837 16 14.4 16H1.6ZM1.6 1.6V14.4H4C4 12.1909 5.79086 10.4 8 10.4C10.2091 10.4 12 12.1909 12 14.4H14.4V1.6H1.6ZM10.4 14.4C10.4 13.0745 9.32548 12 8 12C6.67452 12 5.6 13.0745 5.6 14.4H10.4Z" fill="black"/>
</svg>
